<svg xmlns="http://www.w3.org/2000/svg" viewBox="0 0 329 281" preserveAspectRatio="xMidYMid meet">
  <g transform="translate(0,281) scale(0.1,-0.1)" fill="yellowgreen" stroke="none">
    <path d="M935 2140 c-28 -11 -122 -114 -167 -181 -217 -328 -237 -731 -54 -1075 83 -156 188 -272 253 -281 67 -9 129 36 133 97 4 54 -3 70 -72 156 -130 162 -189 324 -189 519 0 194 66 374 195 529 60 70 66 82 66 122 0 25 -7 56 -16 70 -31 46 -97 66 -149 44z"/>
    <path d="M2229 2136 c-39 -22 -59 -60 -59 -109 0 -39 7 -53 72 -133 130 -162 189 -324 189 -519 0 -193 -60 -359 -186 -515 -37 -46 -71 -97 -76 -112 -12 -44 10 -98 51 -126 52 -35 109 -27 162 24 138 134 247 346 283 553 57 323 -57 686 -283 905 -46 44 -108 57 -153 32z"/>
    <path d="M1264 1781 c-17 -10 -47 -41 -67 -68 -130 -177 -151 -396 -57 -584 34 -67 97 -147 130 -164 85 -44 180 12 180 106 0 34 -8 53 -39 93 -68 90 -76 111 -76 211 0 100 8 121 76 211 43 57 50 103 24 154 -30 57 -112 77 -171 41z"/>
    <path d="M1878 1784 c-35 -18 -58 -62 -58 -110 0 -28 10 -50 39 -88 68 -90 76 -111 76 -211 0 -100 -8 -121 -76 -211 -31 -40 -39 -59 -39 -93 0 -71 50 -121 123 -121 47 0 93 34 143 107 142 208 136 455 -17 660 -60 80 -126 103 -191 67z"/>
    <path d="M1580 1483 c-92 -47 -87 -180 7 -220 102 -42 202 58 160 160 -28 65 -104 93 -167 60z"/>
  </g>
</svg>
